<svg version="1.1" id="Layer_1" xmlns="http://www.w3.org/2000/svg" xmlns:xlink="http://www.w3.org/1999/xlink" x="0px" y="0px"
	 width="100%" viewBox="0 0 500 500" enable-background="new 0 0 500 500" xml:space="preserve">
<path fill="none" opacity="1.000000" stroke="none" 
	d="
M334.000000,501.000000 
	C222.666687,501.000000 111.833389,501.000000 1.000059,501.000000 
	C1.000040,334.333405 1.000040,167.666794 1.000020,1.000149 
	C167.666565,1.000099 334.333130,1.000099 500.999756,1.000050 
	C500.999847,167.666519 500.999847,334.333038 500.999939,500.999786 
	C445.500000,501.000000 390.000000,501.000000 334.000000,501.000000 
M215.500015,76.073387 
	C193.504532,76.076736 171.508438,75.986237 149.513824,76.125839 
	C139.571426,76.188942 129.623993,76.554001 119.692963,77.059372 
	C104.940872,77.810066 94.228622,93.350281 95.847549,107.890335 
	C97.584320,123.488792 110.895813,133.021255 124.912537,133.002274 
	C179.235672,132.928696 233.558960,132.943497 287.882141,132.992508 
	C291.488647,132.995758 295.115112,133.405151 298.697510,133.885315 
	C322.257843,137.043289 338.501434,150.645798 349.922821,170.593643 
	C360.012421,188.215408 361.518097,207.522720 357.802826,226.915848 
	C354.161102,245.925095 344.192596,261.651398 328.368195,273.301483 
	C316.296906,282.188507 302.495880,285.773590 287.792786,285.942444 
	C266.299530,286.189240 244.798248,285.804382 223.306961,286.126678 
	C209.440796,286.334595 200.368378,294.929199 197.349152,306.882446 
	C194.020432,320.061035 199.973557,332.997986 211.254761,339.085388 
	C218.860123,343.189240 227.123016,342.445007 234.900085,342.603455 
	C259.149200,343.097504 283.429291,342.464142 307.689148,341.909149 
	C325.563873,341.500214 342.037048,335.947174 357.339294,326.836456 
	C381.993774,312.157684 399.100677,290.903992 409.762634,264.620941 
	C418.764160,242.430908 423.310181,219.263123 419.861389,195.188492 
	C418.381104,184.855148 417.049255,174.307526 413.828827,164.452362 
	C403.820557,133.825119 385.745941,108.951767 358.054138,91.804832 
	C342.166931,81.967361 325.005249,75.985985 305.983124,76.071632 
	C276.156036,76.205940 246.327789,76.085770 215.500015,76.073387 
M270.498291,240.923691 
	C277.432800,240.595612 284.447418,240.821167 291.286224,239.831589 
	C309.034454,237.263397 319.580719,223.412537 318.719879,206.447906 
	C317.819427,188.703110 303.666840,176.020676 286.320374,176.051682 
	C242.840897,176.129410 199.359879,176.271164 155.882492,175.962509 
	C143.701157,175.876038 132.333405,177.917572 121.879356,184.117294 
	C100.987160,196.507294 88.631927,214.939804 88.334900,239.161209 
	C87.607735,298.457855 88.334778,357.770966 87.923889,417.073639 
	C87.797226,435.354767 103.767143,451.735535 122.124809,451.275818 
	C137.767853,450.884033 154.911819,437.321411 154.916580,418.108826 
	C154.929367,366.632996 154.926926,315.157135 154.931381,263.681305 
	C154.932510,250.720825 164.620850,240.954544 177.542084,240.945877 
	C208.194382,240.925339 238.846664,240.929794 270.498291,240.923691 
z"/>
<path fill="#fff" opacity="1.000000" stroke="none" 
	d="
M216.000031,76.073387 
	C246.327789,76.085770 276.156036,76.205940 305.983124,76.071632 
	C325.005249,75.985985 342.166931,81.967361 358.054138,91.804832 
	C385.745941,108.951767 403.820557,133.825119 413.828827,164.452362 
	C417.049255,174.307526 418.381104,184.855148 419.861389,195.188492 
	C423.310181,219.263123 418.764160,242.430908 409.762634,264.620941 
	C399.100677,290.903992 381.993774,312.157684 357.339294,326.836456 
	C342.037048,335.947174 325.563873,341.500214 307.689148,341.909149 
	C283.429291,342.464142 259.149200,343.097504 234.900085,342.603455 
	C227.123016,342.445007 218.860123,343.189240 211.254761,339.085388 
	C199.973557,332.997986 194.020432,320.061035 197.349152,306.882446 
	C200.368378,294.929199 209.440796,286.334595 223.306961,286.126678 
	C244.798248,285.804382 266.299530,286.189240 287.792786,285.942444 
	C302.495880,285.773590 316.296906,282.188507 328.368195,273.301483 
	C344.192596,261.651398 354.161102,245.925095 357.802826,226.915848 
	C361.518097,207.522720 360.012421,188.215408 349.922821,170.593643 
	C338.501434,150.645798 322.257843,137.043289 298.697510,133.885315 
	C295.115112,133.405151 291.488647,132.995758 287.882141,132.992508 
	C233.558960,132.943497 179.235672,132.928696 124.912537,133.002274 
	C110.895813,133.021255 97.584320,123.488792 95.847549,107.890335 
	C94.228622,93.350281 104.940872,77.810066 119.692963,77.059372 
	C129.623993,76.554001 139.571426,76.188942 149.513824,76.125839 
	C171.508438,75.986237 193.504532,76.076736 216.000031,76.073387 
z"/>
<path fill="#fff" opacity="1.000000" stroke="none" 
	d="
M269.998627,240.923920 
	C238.846664,240.929794 208.194382,240.925339 177.542084,240.945877 
	C164.620850,240.954544 154.932510,250.720825 154.931381,263.681305 
	C154.926926,315.157135 154.929367,366.632996 154.916580,418.108826 
	C154.911819,437.321411 137.767853,450.884033 122.124809,451.275818 
	C103.767143,451.735535 87.797226,435.354767 87.923889,417.073639 
	C88.334778,357.770966 87.607735,298.457855 88.334900,239.161209 
	C88.631927,214.939804 100.987160,196.507294 121.879356,184.117294 
	C132.333405,177.917572 143.701157,175.876038 155.882492,175.962509 
	C199.359879,176.271164 242.840897,176.129410 286.320374,176.051682 
	C303.666840,176.020676 317.819427,188.703110 318.719879,206.447906 
	C319.580719,223.412537 309.034454,237.263397 291.286224,239.831589 
	C284.447418,240.821167 277.432800,240.595612 269.998627,240.923920 
z"/>
</svg>